<svg width="160" height="37" viewBox="0 0 160 37" fill="none" xmlns="http://www.w3.org/2000/svg">
<g clip-path="url(#clip0_1483_3730)">
<path d="M28.0843 0.03125L20.9681 12.358C20.5111 13.1596 19.3579 13.1596 18.9008 12.358L11.7776 0.03125L8.15625 2.12672L13.3738 11.1626C16.292 16.2114 23.5769 16.2114 26.4951 11.1626L31.7127 2.12672L28.0843 0.03125Z" fill="white"/>
<path d="M0 20.4339H14.2394C15.1605 20.4339 15.7371 21.4324 15.273 22.227L8.15687 34.5608L11.7782 36.6492L17.0029 27.6134C19.914 22.5646 16.2715 16.25 10.4422 16.25H0V20.4339Z" fill="white"/>
<path d="M31.7137 34.5608L24.5975 22.227C24.1334 21.4324 24.71 20.4339 25.6312 20.4339H39.8706V16.25H29.4284C23.599 16.25 19.9566 22.5646 22.8677 27.6134L28.0853 36.6492L31.7137 34.5608Z" fill="white"/>
<path d="M52.7227 0H56.4646V12.7802C57.4282 11.5211 59.0881 10.7193 61.0716 10.7193C64.4126 10.7193 66.8463 12.9701 66.8463 17.0637V25.7573H63.1044V17.5701C63.1044 15.1857 61.7891 13.9056 59.8126 13.9056C57.7799 13.9056 56.4646 15.1857 56.4646 17.5701V25.7573H52.7227V0Z" fill="white"/>
<path fill-rule="evenodd" clip-rule="evenodd" d="M76.7078 10.6914C79.0922 10.6914 80.724 11.8167 81.6032 13.0476V10.9375H85.3803V25.7575H81.6032V23.5911C80.724 24.8783 79.0359 25.9966 76.6797 25.9966C72.9378 25.9966 69.9414 22.9229 69.9414 18.2948C69.9414 13.6666 72.9378 10.6914 76.7078 10.6914ZM77.6714 13.9831C75.6668 13.9831 73.7677 15.4813 73.7677 18.2948C73.7677 21.1012 75.6668 22.7049 77.6714 22.7049C79.7323 22.7049 81.6032 21.1575 81.6032 18.344C81.6032 15.5376 79.7323 13.9831 77.6714 13.9831Z" fill="white"/>
<path fill-rule="evenodd" clip-rule="evenodd" d="M89.5352 10.9375H93.2842V13.0758C94.1634 11.8167 95.8796 10.6914 98.1796 10.6914C101.978 10.6914 104.946 13.6666 104.946 18.2948C104.946 22.9229 101.978 25.9966 98.1796 25.9966C95.8514 25.9966 94.1915 24.8501 93.2842 23.6474V36.6808H89.5352V10.9375ZM97.1878 13.9902C95.1832 13.9902 93.2842 15.5446 93.2842 18.351C93.2842 21.1575 95.1832 22.7119 97.1878 22.7119C99.2206 22.7119 101.12 21.1082 101.12 18.2948C101.12 15.4883 99.2206 13.9902 97.1878 13.9902Z" fill="white"/>
<path fill-rule="evenodd" clip-rule="evenodd" d="M114.512 10.6914C116.897 10.6914 118.529 11.8167 119.408 13.0476V10.9375H123.185V25.7575H119.408V23.5911C118.529 24.8783 116.841 25.9966 114.484 25.9966C110.742 25.9966 107.746 22.9229 107.746 18.2948C107.746 13.6666 110.742 10.6914 114.512 10.6914ZM115.476 13.9831C113.471 13.9831 111.572 15.4813 111.572 18.2948C111.572 21.1012 113.471 22.7049 115.476 22.7049C117.537 22.7049 119.408 21.1575 119.408 18.344C119.408 15.5376 117.537 13.9831 115.476 13.9831Z" fill="white"/>
<path d="M137.725 17.5695C137.725 15.185 136.417 13.9049 134.434 13.9049C132.401 13.9049 131.093 15.185 131.093 17.5695V25.7566H127.344V10.9367H131.093V12.7795C132.056 11.5205 133.66 10.7188 135.559 10.7188C139.013 10.7188 141.474 12.9694 141.474 17.063V25.7566H137.725V17.5695Z" fill="white"/>
<path fill-rule="evenodd" clip-rule="evenodd" d="M151.329 10.6914C153.713 10.6914 155.344 11.8167 156.23 13.0476V10.9375H160.001V25.7575H156.23V23.5911C155.344 24.8783 153.657 25.9966 151.308 25.9966C147.559 25.9966 144.562 22.9229 144.562 18.2948C144.562 13.6666 147.559 10.6914 151.329 10.6914ZM152.293 13.9831C150.288 13.9831 148.389 15.4813 148.389 18.2948C148.389 21.1012 150.288 22.7049 152.293 22.7049C154.353 22.7049 156.23 21.1575 156.23 18.344C156.23 15.5376 154.353 13.9831 152.293 13.9831Z" fill="white"/>
</g>
<defs>
<clipPath id="clip0_1483_3730">
<rect width="160" height="37" fill="white"/>
</clipPath>
</defs>
</svg>
